<?xml version="1.0" standalone="no"?>
<!DOCTYPE svg PUBLIC "-//W3C//DTD SVG 20010904//EN"
 "http://www.w3.org/TR/2001/REC-SVG-20010904/DTD/svg10.dtd">
<svg version="1.0" xmlns="http://www.w3.org/2000/svg"
 width="186.000000pt" height="186.000000pt" viewBox="0 0 186.000000 186.000000"
 preserveAspectRatio="xMidYMid meet">
<metadata>
Created by potrace 1.11, written by Peter Selinger 2001-2013
</metadata>
<g transform="translate(0.000000,186.000000) scale(0.100000,-0.100000)"
fill="#000000" stroke="none">
<path d="M831 1695 c-354 -77 -624 -327 -717 -665 -28 -101 -25 -283 5 -380
39 -127 87 -206 181 -300 96 -97 192 -153 326 -192 114 -33 334 -33 447 0 356
102 605 359 673 692 21 103 15 256 -13 345 l-19 60 -45 -95 c-262 -562 -337
-714 -354 -725 -17 -11 -36 -7 -129 29 -60 22 -111 46 -113 52 -2 6 91 213
207 460 115 247 210 456 210 465 0 20 -7 22 -255 50 -104 12 -192 23 -194 25
-9 8 43 116 60 125 13 6 58 4 145 -7 69 -9 128 -14 130 -11 9 8 -163 66 -228
77 -87 14 -240 11 -317 -5z m223 -238 c248 -32 331 -46 338 -57 7 -11 -59
-162 -243 -555 -138 -297 -256 -546 -262 -552 -5 -7 -18 -13 -28 -13 -26 0
-601 219 -618 235 -11 11 18 86 189 482 112 257 210 476 218 486 20 23 22 22
406 -26z"/>
</g>
</svg>
